<svg data-v-fde0c5aa="" xmlns="http://www.w3.org/2000/svg" class="font" height="500px" width="200px">
    <!---->
    <defs data-v-fde0c5aa="">
        <!---->
        <style>
            svg {

                border: 2px solid red;

            }
        </style>
    </defs>
    <rect data-v-fde0c5aa="" fill="#F3E9F1" x="0" y="0" width="200px" height="500px" class="logo-background-square">
    </rect>
    <defs data-v-fde0c5aa="">
        <linearGradient data-v-fde0c5aa="" gradientTransform="rotate(25)" id="8ee79fb7-4d02-4765-8659-08ea417d6bd9"
            x1="0%" y1="0%" x2="100%" y2="0%">
            <stop data-v-fde0c5aa="" offset="0%" stop-color="#E98C00" stop-opacity="1"></stop>
            <stop data-v-fde0c5aa="y" offset="100%" stop-color="#8F5BFE" stop-opacity="1"></stop>
        </linearGradient>
    </defs>
    <g data-v-fde0c5aa="" id="42968325-63f0-4491-ae08-7eb44e81382f" fill="url(#8ee79fb7-4d02-4765-8659-08ea417d6bd9)"
        transform="matrix(7.280063010410869,0,0,7.280063010410869,35.701264272916525,86.48145092844608)">
        <path
            d="M0.60 11.86C0.46 13.27 1.89 13.85 3.19 13.85C4.66 13.85 5.73 13.12 5.73 11.84C5.73 9.46 1.96 10.36 1.96 8.75C1.96 8.20 2.44 7.95 3.16 7.95C4.31 7.95 4.48 8.64 4.40 9.09L5.52 8.89C5.74 7.64 4.58 7.03 3.22 7.03C1.60 7.03 0.81 7.87 0.81 8.95C0.81 11.28 4.55 10.49 4.55 12.05C4.55 12.64 3.98 12.92 3.15 12.92C2.07 12.92 1.60 12.38 1.67 11.69ZM7.43 13.65L8.55 13.65L8.55 10.22C8.68 9.65 9.20 7.99 10.64 7.99C11.31 7.99 11.65 8.36 11.65 9.32L11.65 13.65L12.77 13.65L12.77 10.22C12.89 9.65 13.41 7.99 14.85 7.99C15.53 7.99 15.86 8.36 15.86 9.32L15.86 13.65L16.98 13.65L16.98 9.00C16.98 7.63 16.13 7.03 15.04 7.03C13.41 7.03 12.82 8.23 12.68 8.58C12.47 7.42 11.75 7.03 10.82 7.03C9.31 7.03 8.71 8.06 8.51 8.50L8.51 7.22L7.43 7.22ZM18.87 5.00C18.87 5.43 19.19 5.75 19.63 5.75C20.05 5.75 20.38 5.43 20.38 5.00C20.38 4.58 20.05 4.24 19.63 4.24C19.19 4.24 18.87 4.58 18.87 5.00ZM19.08 13.65L20.20 13.65L20.20 7.22L19.08 7.22ZM22.36 13.65L23.48 13.65L23.48 3.60L22.36 3.60ZM30.81 10.61L30.81 9.91C30.81 7.95 29.90 7.03 28.21 7.03C25.97 7.03 25.24 8.75 25.24 10.47C25.24 12.78 26.33 13.85 28.24 13.85C29.65 13.85 30.49 13.16 30.81 12.01L29.83 11.82C29.65 12.40 29.11 12.92 28.27 12.92C26.80 12.92 26.46 11.80 26.45 10.61ZM28.18 7.95C29.19 7.95 29.65 8.61 29.65 9.46L29.65 9.72L26.49 9.72C26.66 8.50 27.29 7.95 28.18 7.95Z">
        </path>
    </g>
    <!---->
    <!---->
</svg>