<svg data-v-423bf9ae="" xmlns="http://www.w3.org/2000/svg" viewBox="0 0 303 91" class="iconLeft"><!----><!----><!----><g data-v-423bf9ae="" id="c17f877c-7f87-417c-9c9c-ae8baf81cf4b" fill="black" transform="matrix(5.853658536585366,0,0,5.853658536585366,122.00116954780206,-6.073168742947459)"><path d="M0.60 11.86C0.46 13.27 1.89 13.85 3.19 13.85C4.66 13.85 5.73 13.12 5.73 11.84C5.73 9.46 1.96 10.36 1.96 8.75C1.96 8.20 2.44 7.95 3.16 7.95C4.31 7.95 4.48 8.64 4.40 9.09L5.52 8.89C5.74 7.64 4.58 7.03 3.22 7.03C1.60 7.03 0.81 7.87 0.81 8.95C0.81 11.28 4.55 10.49 4.55 12.05C4.55 12.64 3.98 12.92 3.15 12.92C2.07 12.92 1.60 12.38 1.67 11.69ZM7.43 13.65L8.55 13.65L8.55 10.22C8.68 9.65 9.20 7.99 10.64 7.99C11.31 7.99 11.65 8.36 11.65 9.32L11.65 13.65L12.77 13.65L12.77 10.22C12.89 9.65 13.41 7.99 14.85 7.99C15.53 7.99 15.86 8.36 15.86 9.32L15.86 13.65L16.98 13.65L16.98 9.00C16.98 7.63 16.13 7.03 15.04 7.03C13.41 7.03 12.82 8.23 12.68 8.58C12.47 7.42 11.75 7.03 10.82 7.03C9.31 7.03 8.71 8.06 8.51 8.50L8.51 7.22L7.43 7.22ZM18.87 5.00C18.87 5.43 19.19 5.75 19.63 5.75C20.05 5.75 20.38 5.43 20.38 5.00C20.38 4.58 20.05 4.24 19.63 4.24C19.19 4.24 18.87 4.58 18.87 5.00ZM19.08 13.65L20.20 13.65L20.20 7.22L19.08 7.22ZM22.36 13.65L23.48 13.65L23.48 3.60L22.36 3.60ZM30.81 10.61L30.81 9.91C30.81 7.95 29.90 7.03 28.21 7.03C25.97 7.03 25.24 8.75 25.24 10.47C25.24 12.78 26.33 13.85 28.24 13.85C29.65 13.85 30.49 13.16 30.81 12.01L29.83 11.82C29.65 12.40 29.11 12.92 28.27 12.92C26.80 12.92 26.46 11.80 26.45 10.61ZM28.18 7.95C29.19 7.95 29.65 8.61 29.65 9.46L29.65 9.72L26.49 9.72C26.66 8.50 27.29 7.95 28.18 7.95Z"></path></g><!----><g data-v-423bf9ae="" id="276bebdb-d4cc-4f2d-8ce1-b5c8d01984ed" transform="matrix(2.092828866663787,0,0,2.092828866663787,0.2711773430865776,-3.0741891910122803)" stroke="none" fill="black"><path d="M23.94 38.405c.08.38.07.775-.037 1.155a2.304 2.304 0 0 1-.55.967 2.315 2.315 0 0 1-3.248.045l-4.5-4.389-.866 1.06 4.501 4.395c1.229 1.194 3.899 1.116 5.105-.108.42-.427 1.01-1.396 1.136-1.959l11.861.01c1.278 0 2.541 1.192 2.541 2.462 0 1.287-.836 2.859-2.594 2.859H18.284c-.822-.03-1.847-.45-2.565-1.055l-9.927-7.453-5.781.025L0 27.766h.05v-.078h11.532s1.208.027 2.04.51c.766.447 1.447 1.103 1.447 1.103l8.231 7.993c.313.301.533.683.64 1.111z"></path><path d="M46.037 25.761c.079-.149.18-.29.239-.455a4.158 4.158 0 0 0-.145-3.236 4.625 4.625 0 0 0-2.135-2.154c.105-1.902-1.114-3.717-3.099-4.411a4.921 4.921 0 0 0-2.854-.105 4.713 4.713 0 0 0-2.279-1.677 4.833 4.833 0 0 0-1.608-.272c-1.799 0-3.419 1.01-4.129 2.552-1.864.042-3.519 1.165-4.137 2.816a4.145 4.145 0 0 0-.262 1.428c-1.682.189-3.134 1.262-3.704 2.791a4.111 4.111 0 0 0-.045 2.725H17.28l9.749 11.207h14.034l9.327-11.207h-4.353zm-22.061-1.959c.37-.989 1.571-1.584 2.738-1.339l1.977.415-.733-1.883a1.936 1.936 0 0 1-.016-1.407c.359-.97 1.496-1.575 2.668-1.354l1.064.19.203-1.064c.022-.107.048-.215.087-.317.408-1.093 1.833-1.688 3.083-1.25.695.24 1.238.742 1.485 1.375l.455 1.149 1.087-.59a2.648 2.648 0 0 1 2.104-.152c1.215.42 1.895 1.614 1.539 2.714l-.359 1.109 1.135.285c.069.018.14.035.22.065.645.222 1.164.68 1.439 1.255.229.494.255 1.044.069 1.539-.209.567-.68 1-1.299 1.22H24.317c-.447-.576-.585-1.305-.341-1.96zM29.636 13.455H28.45V6.617h1.186v6.838zM33.155 10.976h-1.186V1.898h1.186v9.078zM36.675 11.615h-1.187V5.817h1.187v5.798z"></path></g><!----></svg>